<svg id="Ebene_1" data-name="Ebene 1" xmlns="http://www.w3.org/2000/svg" viewBox="0 0 458.21 57.9"><defs><style>.cls-1{fill:#363636;}.cls-2{fill:#48bdcc;}.cls-3{fill:#fff;}</style></defs><path class="cls-1" d="M138.92,38.87a11.47,11.47,0,1,0,0,22.94,12.6,12.6,0,0,0,8.53-3.46l2,2.18a15.85,15.85,0,0,1-10.71,4.36,14.62,14.62,0,0,1-14.91-14.57c0-8.08,6.67-14.46,15-14.46a15.59,15.59,0,0,1,10.54,4.2l-2,2.39A12.28,12.28,0,0,0,138.92,38.87Z" transform="translate(-32.97 -19.01)"/><path class="cls-1" d="M174.88,53.9a11,11,0,0,1-22,0c0-6.43,4.54-10.91,11-10.91S174.88,47.47,174.88,53.9Zm-18.78,0c0,4.86,3.21,8.15,7.78,8.15s7.79-3.29,7.79-8.15-3.26-8.11-7.79-8.11S156.1,49.16,156.1,53.94Z" transform="translate(-32.97 -19.01)"/><path class="cls-1" d="M192.34,43v3.12c-4.57-.08-7.41,2.76-7.78,7.13V64.77h-3.22V43.11h3.22v4.82A8.09,8.09,0,0,1,192.34,43Z" transform="translate(-32.97 -19.01)"/><path class="cls-1" d="M217.3,53.9a10.56,10.56,0,0,1-11,11c-6.47,0-11-4.53-11-11S199.83,43,206.3,43,217.3,47.47,217.3,53.9Zm-18.78,0c0,4.86,3.21,8.15,7.78,8.15s7.78-3.29,7.78-8.15-3.25-8.11-7.78-8.11S198.52,49.16,198.52,53.94Z" transform="translate(-32.97 -19.01)"/><path class="cls-1" d="M243.61,51.43V64.77H240.4V52.25c0-3.87-2.31-6.18-6.14-6.18-4.28,0-6.91,2.89-7.28,7.09V64.77h-3.22V43.11H227v4.78c1.52-3.3,4.44-4.86,8.4-4.9C240.57,43,243.61,46.16,243.61,51.43Z" transform="translate(-32.97 -19.01)"/><path class="cls-1" d="M265.07,64.77V61.39c-1.73,2.35-4.49,3.5-7.95,3.5-4.49,0-7.37-2.84-7.37-6.54s3-6.18,8.11-6.22H265V50.77c0-3.17-2-5.11-5.81-5.11a11.85,11.85,0,0,0-6.88,2.51l-1.36-2.26A14.58,14.58,0,0,1,259.8,43c5.35,0,8.32,2.84,8.36,7.45l0,14.33Zm0-7.45V54.68h-6.76c-3.62,0-5.51,1.11-5.51,3.54s1.93,4,5,4C261.4,62.22,264.21,60.41,265,57.32Z" transform="translate(-32.97 -19.01)"/><path class="cls-1" d="M275,43.11l6.42,18.41,6.3-18.41h3.38l6.38,18.41,6.34-18.41h3.34l-8,21.66h-3.34L289.37,47,283,64.77h-3.34l-8.11-21.66Z" transform="translate(-32.97 -19.01)"/><path class="cls-1" d="M329.73,55.13H312a7.67,7.67,0,0,0,7.87,7.09,9.1,9.1,0,0,0,6.71-2.76l1.77,1.85a11.51,11.51,0,0,1-8.73,3.58c-6.38,0-10.79-4.48-10.79-11S313.3,43,319.6,43C326.6,43,330.06,47.8,329.73,55.13Zm-2.88-2.55a6.84,6.84,0,0,0-7.25-6.92A7.32,7.32,0,0,0,312,52.58Z" transform="translate(-32.97 -19.01)"/><path class="cls-1" d="M355,43.11v19.4c0,6.34-4.33,10.33-10.92,10.33a14.34,14.34,0,0,1-8.89-3.17l1.48-2.35a11.07,11.07,0,0,0,7.29,2.76c4.73,0,7.82-2.92,7.82-7.49v-3.3a8.53,8.53,0,0,1-8,4.53c-5.84,0-9.88-4.32-9.88-10.46s4-10.33,9.8-10.37a8.56,8.56,0,0,1,8.07,4.53V43.11Zm-3.22,10.34c0-4.53-3.09-7.79-7.41-7.79s-7.41,3.26-7.45,7.79,3.09,7.74,7.45,7.74S351.76,57.93,351.76,53.45Z" transform="translate(-32.97 -19.01)"/><path class="cls-1" d="M362.72,43.11l6.42,18.41,6.3-18.41h3.38l6.39,18.41,6.34-18.41h3.33l-8,21.66h-3.33L377.13,47l-6.34,17.75h-3.33l-8.12-21.66Z" transform="translate(-32.97 -19.01)"/><path class="cls-1" d="M417.49,55.13H399.78a7.67,7.67,0,0,0,7.87,7.09,9.09,9.09,0,0,0,6.71-2.76l1.77,1.85a11.48,11.48,0,0,1-8.73,3.58c-6.38,0-10.79-4.48-10.79-11S401.06,43,407.36,43C414.36,43,417.82,47.8,417.49,55.13Zm-2.88-2.55a6.84,6.84,0,0,0-7.25-6.92,7.32,7.32,0,0,0-7.58,6.92Z" transform="translate(-32.97 -19.01)"/><path class="cls-1" d="M427.5,36.89a2.1,2.1,0,1,1-2.1-2.18A2.07,2.07,0,0,1,427.5,36.89ZM427,43.11V64.77h-3.17V43.11Z" transform="translate(-32.97 -19.01)"/><path class="cls-1" d="M441.22,45.66c-2.43,0-4.29.87-4.29,2.93,0,4.9,12.11,2.38,12.11,10.17,0,4.24-3.79,6.13-8,6.13a12.27,12.27,0,0,1-8.32-3L434,59.5a11,11,0,0,0,7.21,2.76c2.55,0,4.61-1,4.65-3.17.12-5.27-12-2.6-12-10.26,0-4.11,3.58-5.89,7.53-5.89a12.92,12.92,0,0,1,6.92,2l-1.23,2.47A11.46,11.46,0,0,0,441.22,45.66Z" transform="translate(-32.97 -19.01)"/><path class="cls-1" d="M473.83,55.13H456.12A7.67,7.67,0,0,0,464,62.22a9.09,9.09,0,0,0,6.71-2.76l1.77,1.85a11.48,11.48,0,0,1-8.73,3.58c-6.38,0-10.79-4.48-10.79-11S457.4,43,463.7,43C470.7,43,474.16,47.8,473.83,55.13ZM471,52.58a6.84,6.84,0,0,0-7.25-6.92,7.32,7.32,0,0,0-7.58,6.92Z" transform="translate(-32.97 -19.01)"/><path class="cls-1" d="M491.17,43v3.12c-4.57-.08-7.41,2.76-7.78,7.13V64.77h-3.21V43.11h3.21v4.82A8.1,8.1,0,0,1,491.17,43Z" transform="translate(-32.97 -19.01)"/><rect class="cls-1" x="35.06" y="27.1" width="1.5" height="29.3"/><path class="cls-1" d="M69.52,19.76a.75.75,0,0,0-1.5,0V25.2h1.5Z" transform="translate(-32.97 -19.01)"/><path class="cls-2" d="M78.52,38.24h8.7l8.61-5.77L87.22,26.7H55.62v3.49a.75.75,0,0,1,0,.26l.1,0v0H77.76V38.7l.06,0A.75.75,0,0,1,78.52,38.24Z" transform="translate(-32.97 -19.01)"/><path class="cls-1" d="M54.87,26H68V25.2H54.87a.76.76,0,0,0-.75.75v4.24a.75.75,0,0,0,1.45.26l-.7-.26Z" transform="translate(-32.97 -19.01)"/><path class="cls-1" d="M97.6,31.85l-9.73-6.52a.8.8,0,0,0-.42-.13H69.52V26H87.45l9.73,6.52L87.45,39H78.52l-.7-.26a.71.71,0,0,0,0,.26.76.76,0,0,0,.75.75h8.93a.8.8,0,0,0,.42-.13l9.73-6.52a.75.75,0,0,0,0-1.24Z" transform="translate(-32.97 -19.01)"/><rect class="cls-1" x="35.06" y="6.19" width="1.5" height="0.75"/><path class="cls-1" d="M87.45,39l9.73-6.52L87.45,26H69.52a.74.74,0,0,1-.75.75H87.22l8.61,5.77-8.61,5.77h-8.7a.75.75,0,0,0-.7.49l.7.26Z" transform="translate(-32.97 -19.01)"/><path class="cls-1" d="M55.62,26.7H68.77A.75.75,0,0,1,68,26H54.87v4.24l.7.26a.75.75,0,0,0,0-.26Z" transform="translate(-32.97 -19.01)"/><path class="cls-1" d="M68,26a.75.75,0,1,0,1.5,0H68Z" transform="translate(-32.97 -19.01)"/><path class="cls-1" d="M68,76.16v-.75H55.21a.75.75,0,0,0,0,1.5H68.77A.75.75,0,0,1,68,76.16Z" transform="translate(-32.97 -19.01)"/><path class="cls-1" d="M68.77,76.91H82.33a.75.75,0,1,0,0-1.5H69.52v.75A.74.74,0,0,1,68.77,76.91Z" transform="translate(-32.97 -19.01)"/><path class="cls-1" d="M68,76.16a.75.75,0,0,0,1.5,0v-.75H68Z" transform="translate(-32.97 -19.01)"/><polygon class="cls-3" points="10.71 14.07 2.1 19.83 10.71 25.6 22.7 25.6 22.7 14.07 10.71 14.07"/><polygon class="cls-3" points="22.7 25.6 35.81 25.6 42.31 25.6 42.31 18.77 29.68 14.07 22.7 14.07 22.7 25.6"/><polygon class="cls-3" points="42.31 14.07 29.68 14.07 42.31 18.77 42.31 14.07"/><path class="cls-1" d="M68,45.36H43.45l-9.73-6.51,9.73-6.52H55.67v-.75H43.45a.77.77,0,0,0-.42.13L33.3,38.22a.76.76,0,0,0-.33.63.74.74,0,0,0,.33.62L43,46a.76.76,0,0,0,.42.12H68v-.75Z" transform="translate(-32.97 -19.01)"/><path class="cls-1" d="M69.52,45.36h0v.75H76a.75.75,0,0,0,.75-.75H69.52Z" transform="translate(-32.97 -19.01)"/><polygon class="cls-1" points="36.56 26.35 35.06 26.35 35.06 26.35 35.06 27.1 36.56 27.1 36.56 26.35 36.56 26.35"/><polygon class="cls-1" points="27.66 13.32 25.65 12.57 22.7 12.57 22.7 13.32 27.66 13.32"/><polygon class="cls-1" points="43.06 19.04 43.06 26.35 43.81 26.35 43.81 19.32 43.06 19.04"/><path class="cls-1" d="M76,32.33v5.73l.75.28v-6a.76.76,0,0,0-.75-.75H58.61l2,.75Z" transform="translate(-32.97 -19.01)"/><polygon class="cls-1" points="10.71 25.6 2.1 19.83 10.71 14.07 22.7 14.07 22.7 13.32 10.48 13.32 0.75 19.83 10.48 26.35 22.7 26.35 22.7 25.6 10.71 25.6"/><path class="cls-1" d="M75.28,44.61H68.77a.76.76,0,0,1,.75.75H76v-7.3l-.75-.28Z" transform="translate(-32.97 -19.01)"/><path class="cls-1" d="M68.77,44.61H55.67v.75H68A.76.76,0,0,1,68.77,44.61Z" transform="translate(-32.97 -19.01)"/><polygon class="cls-1" points="29.68 14.07 27.66 13.32 22.7 13.32 22.7 14.07 29.68 14.07"/><path class="cls-1" d="M68.77,44.61a.76.76,0,0,0-.75.75h1.5A.76.76,0,0,0,68.77,44.61Z" transform="translate(-32.97 -19.01)"/><polygon class="cls-1" points="27.66 13.32 29.68 14.07 42.31 14.07 42.31 18.77 43.06 19.04 43.06 13.32 27.66 13.32"/></svg>