<svg xmlns="http://www.w3.org/2000/svg" viewBox="0 0 459.44 57.9"><defs><style>.cls-1{font-size:41.18px;font-family:Montserrat-Light, Montserrat;font-weight:300;letter-spacing:0em;}.cls-1,.cls-4{fill:#363636;}.cls-2{letter-spacing:0.02em;}.cls-3{letter-spacing:0em;}.cls-5{fill:#48bdcc;}.cls-6{fill:#fff;}</style></defs><g id="Ebene_2" data-name="Ebene 2"><g id="Ebene_1-2" data-name="Ebene 1"><text class="cls-1" transform="translate(89.24 45.76)">C<tspan class="cls-2" x="28.95" y="0">oron</tspan><tspan class="cls-3" x="125.49" y="0">a</tspan><tspan x="149.21" y="0">w</tspan><tspan class="cls-2" x="184.92" y="0">eg</tspan><tspan x="236.97" y="0">w</tspan><tspan class="cls-2" x="272.68" y="0">eiser</tspan></text><rect class="cls-4" x="35.06" y="27.1" width="1.5" height="29.3"/><path class="cls-4" d="M36.56.75a.75.75,0,0,0-1.5,0V6.19h1.5Z"/><path class="cls-5" d="M45.55,19.22h8.71l8.61-5.76L54.26,7.69H22.66v3.49a.71.71,0,0,1-.06.25l.1,0v0H44.79v8.26l.07,0A.74.74,0,0,1,45.55,19.22Z"/><path class="cls-4" d="M21.91,6.94H35.06V6.19H21.91a.75.75,0,0,0-.75.75v4.24a.75.75,0,0,0,.75.75.73.73,0,0,0,.69-.5l-.69-.25Z"/><path class="cls-4" d="M64.63,12.83,54.9,6.32a.7.7,0,0,0-.42-.13H36.56v.75H54.48l9.74,6.52L54.48,20H45.55l-.69-.26a.76.76,0,0,0-.06.26.75.75,0,0,0,.75.75h8.93a.7.7,0,0,0,.42-.13l9.73-6.51a.75.75,0,0,0,.34-.62A.77.77,0,0,0,64.63,12.83Z"/><rect class="cls-4" x="35.06" y="6.19" width="1.5" height="0.75"/><path class="cls-4" d="M54.48,20l9.74-6.51L54.48,6.94H36.56a.76.76,0,0,1-.75.75H54.26l8.61,5.77-8.61,5.76H45.55a.74.74,0,0,0-.69.49l.69.26Z"/><path class="cls-4" d="M22.66,7.69H35.81a.75.75,0,0,1-.75-.75H21.91v4.24l.69.25a.71.71,0,0,0,.06-.25Z"/><path class="cls-4" d="M35.06,6.94a.75.75,0,0,0,1.5,0h-1.5Z"/><path class="cls-4" d="M35.06,57.15V56.4H22.25a.75.75,0,0,0,0,1.5H35.81A.75.75,0,0,1,35.06,57.15Z"/><path class="cls-4" d="M35.81,57.9H49.36a.75.75,0,0,0,0-1.5H36.56v.75A.76.76,0,0,1,35.81,57.9Z"/><path class="cls-4" d="M35.06,57.15a.75.75,0,1,0,1.5,0V56.4h-1.5Z"/><polygon class="cls-6" points="10.71 14.07 2.1 19.83 10.71 25.6 22.7 25.6 22.7 14.07 10.71 14.07"/><polygon class="cls-6" points="22.7 25.6 35.81 25.6 42.31 25.6 42.31 18.77 29.68 14.07 22.7 14.07 22.7 25.6"/><polygon class="cls-6" points="42.31 14.07 29.68 14.07 42.31 18.77 42.31 14.07"/><path class="cls-4" d="M35.06,26.35H10.48L.75,19.83l9.73-6.51H22.7v-.75H10.48a.79.79,0,0,0-.42.12L.33,19.21a.74.74,0,0,0-.33.62.76.76,0,0,0,.33.63L10.06,27a.8.8,0,0,0,.42.13H35.06v-.75Z"/><path class="cls-4" d="M36.56,26.35h0v.75h6.5a.76.76,0,0,0,.75-.75H36.56Z"/><polygon class="cls-4" points="36.56 26.35 35.06 26.35 35.06 26.35 35.06 27.1 36.56 27.1 36.56 26.35 36.56 26.35"/><polygon class="cls-4" points="27.66 13.32 25.65 12.57 22.7 12.57 22.7 13.32 27.66 13.32"/><polygon class="cls-4" points="43.06 19.04 43.06 26.35 43.81 26.35 43.81 19.32 43.06 19.04"/><path class="cls-4" d="M43.06,13.32V19l.75.28v-6a.75.75,0,0,0-.75-.75H25.65l2,.75Z"/><polygon class="cls-4" points="10.71 25.6 2.1 19.83 10.71 14.07 22.7 14.07 22.7 13.32 10.48 13.32 0.75 19.83 10.48 26.35 22.7 26.35 22.7 25.6 10.71 25.6"/><path class="cls-4" d="M42.31,25.6h-6.5a.75.75,0,0,1,.75.75h6.5V19l-.75-.28Z"/><path class="cls-4" d="M35.81,25.6H22.7v.75H35.06A.74.74,0,0,1,35.81,25.6Z"/><polygon class="cls-4" points="29.68 14.07 27.66 13.32 22.7 13.32 22.7 14.07 29.68 14.07"/><path class="cls-4" d="M35.81,25.6a.74.74,0,0,0-.75.75h1.5A.75.75,0,0,0,35.81,25.6Z"/><polygon class="cls-4" points="27.66 13.32 29.68 14.07 42.31 14.07 42.31 18.77 43.06 19.04 43.06 13.32 27.66 13.32"/></g></g></svg>